<svg width="24" height="25" viewBox="0 0 24 25" fill="none" xmlns="http://www.w3.org/2000/svg">
<g clip-path="url(#clip0_0:3562)">
<path d="M24 12.4825C24 5.81459 18.6274 0.40918 12 0.40918C5.37258 0.40918 0 5.81459 0 12.4825C0 18.5087 4.38823 23.5034 10.125 24.4092V15.9725H7.07813V12.4825H10.125V9.82261C10.125 6.79673 11.9165 5.12533 14.6576 5.12533C15.9705 5.12533 17.3438 5.36113 17.3438 5.36113V8.33231H15.8306C14.3399 8.33231 13.875 9.26297 13.875 10.2178V12.4825H17.2031L16.6711 15.9725H13.875V24.4092C19.6118 23.5034 24 18.5087 24 12.4825Z" fill="#B3B3BA"/>
</g>
<defs>
<clipPath id="clip0_0:3562">
<rect width="24" height="24" fill="white" transform="translate(0 0.40918)"/>
</clipPath>
</defs>
</svg>
