<svg width="208" height="31" viewBox="0 0 208 31" fill="none" xmlns="http://www.w3.org/2000/svg">
<g clip-path="url(#clip0_0_21732)">
<path d="M5.17563 28.5455C5.17563 27.9898 4.98495 27.5213 4.60903 27.1345C4.23312 26.7477 3.77549 26.557 3.24158 26.557C2.7567 26.557 2.3372 26.7096 1.98308 27.0201C1.63441 27.3252 1.41649 27.6956 1.33477 28.1369H0.817205V26.6387H0V30.4523H0.817205V28.8997H1.33477C1.41649 29.3627 1.63441 29.755 1.98308 30.0655C2.33176 30.3761 2.75126 30.5341 3.24158 30.5341C3.77549 30.5341 4.23312 30.3434 4.60903 29.9566C4.98495 29.5752 5.17563 29.1012 5.17563 28.5455ZM4.35842 28.5455C4.35842 28.9051 4.24946 29.2047 4.03154 29.439C3.80817 29.6787 3.54667 29.7986 3.24158 29.7986C2.93649 29.7986 2.67498 29.6787 2.45706 29.439C2.23369 29.2047 2.12473 28.9051 2.12473 28.5455C2.12473 28.186 2.23369 27.8863 2.45706 27.6466C2.67498 27.4123 2.93649 27.2925 3.24158 27.2925C3.54667 27.2925 3.80817 27.4123 4.03154 27.6466C4.24946 27.8863 4.35842 28.186 4.35842 28.5455Z" fill="white"/>
<path d="M6.48047 26.6389V30.4526H7.29767V29.1995H8.08764C8.4799 29.1995 8.80678 29.0742 9.06284 28.8291C9.31889 28.5839 9.44965 28.2788 9.44965 27.9192C9.44965 27.5542 9.31889 27.2546 9.06284 27.004C8.80133 26.7588 8.4799 26.6389 8.08764 26.6389H6.48047ZM8.0604 27.3744C8.22384 27.3744 8.36004 27.4289 8.469 27.5324C8.57796 27.6359 8.63244 27.7667 8.63244 27.9192C8.63244 28.0718 8.57796 28.2025 8.469 28.306C8.36004 28.4096 8.22384 28.464 8.0604 28.464H7.29767V27.3744H8.0604Z" fill="white"/>
<path d="M14.1306 30.4526V26.6389H13.4224L11.5428 29.0633V26.6389H10.7256V30.4526H11.4338L13.3134 28.0282V30.4526H14.1306Z" fill="white"/>
<path d="M15.1626 29.7171V31.2425H15.9798V30.4526H18.268V31.2425H19.0852V29.7171H18.6221V26.6389H15.9798V27.8103C15.9798 28.0663 15.958 28.306 15.9144 28.5294C15.8708 28.7582 15.8218 28.938 15.7728 29.0742C15.7183 29.205 15.6584 29.3248 15.5875 29.4392C15.5167 29.5482 15.4731 29.619 15.4459 29.6517C15.4132 29.6789 15.3969 29.7062 15.3805 29.7171H15.1626ZM16.797 27.8103V27.3744H17.8049V29.7171H16.1977L16.2631 29.6517C16.3012 29.6081 16.3503 29.5373 16.4102 29.4338C16.4701 29.3303 16.5246 29.2104 16.5845 29.0742C16.6445 28.938 16.6935 28.7528 16.7316 28.5294C16.7752 28.306 16.797 28.0663 16.797 27.8103Z" fill="white"/>
<path d="M23.656 30.4526V26.6389H22.9478L21.0682 29.0633V26.6389H20.251V30.4526H20.9592L22.8388 28.0282V30.4526H23.656Z" fill="white"/>
<path d="M25.9412 26.6389H25.124V27.8103C25.124 28.2679 25.2439 28.622 25.4836 28.8726C25.7288 29.1287 26.0611 29.254 26.486 29.254C26.851 29.254 27.1507 29.1832 27.385 29.0361V30.4526H28.2022V26.6389H27.385V28.2461L27.2923 28.3169C27.2324 28.3605 27.1398 28.4041 27.0145 28.4531C26.8892 28.4967 26.7584 28.5185 26.6222 28.5185C26.4043 28.5185 26.2354 28.4586 26.1156 28.3387C26.0012 28.2134 25.9412 28.0391 25.9412 27.8103V26.6389Z" fill="white"/>
<path d="M32.9929 26.6389H32.1757V28.1644H30.5413V26.6389H29.7241V30.4526H30.5413V28.8999H32.1757V30.4526H32.9929V26.6389Z" fill="white"/>
<path d="M36.4777 28.8454H35.5515L36.0146 27.5924L36.4777 28.8454ZM36.7501 29.5536L37.077 30.4526H37.9487L36.4505 26.6389H35.5788L34.0806 30.4526H34.9523L35.2791 29.5536H36.7501Z" fill="white"/>
<path d="M41.5111 26.6389H40.6938V30.4526H41.5111V29.363L42.0014 28.8182L43.1182 30.4526H44.0716L42.5462 28.2189L43.9627 26.6389H43.0093L41.5111 28.3006V26.6389Z" fill="white"/>
<path d="M45.7307 28.5455C45.7307 28.1969 45.8505 27.8972 46.0902 27.6575C46.3245 27.4123 46.6133 27.2925 46.9565 27.2925C47.2997 27.2925 47.5885 27.4123 47.8227 27.6575C48.0624 27.8972 48.1823 28.1969 48.1823 28.5455C48.1823 28.8997 48.0624 29.1939 47.8227 29.4336C47.5885 29.6787 47.2997 29.7986 46.9565 29.7986C46.6133 29.7986 46.3245 29.6787 46.0902 29.4336C45.8505 29.1939 45.7307 28.8997 45.7307 28.5455ZM44.8862 28.5455C44.8862 29.0903 45.0878 29.5643 45.4855 29.9511C45.8832 30.3379 46.3735 30.5341 46.9565 30.5341C47.5394 30.5341 48.0297 30.3379 48.4274 29.9511C48.8252 29.5643 49.0267 29.0903 49.0267 28.5455C49.0267 27.9953 48.8252 27.5268 48.4274 27.1399C48.0297 26.7531 47.5394 26.557 46.9565 26.557C46.3735 26.557 45.8832 26.7531 45.4855 27.1399C45.0878 27.5268 44.8862 27.9953 44.8862 28.5455Z" fill="white"/>
<path d="M52.3746 28.3006L51.067 26.6389H50.3315V30.4526H51.1487V27.9192L52.3746 29.4719L53.6004 27.9083V30.4526H54.4176V26.6389H53.693L52.3746 28.3006Z" fill="white"/>
<path d="M59.1801 26.6389H55.9385V30.4526H56.7557V27.3744H58.3629V30.4526H59.1801V26.6389Z" fill="white"/>
<path d="M62.6652 28.8454H61.739L62.2021 27.5924L62.6652 28.8454ZM62.9376 29.5536L63.2645 30.4526H64.1362L62.638 26.6389H61.7663L60.2681 30.4526H61.1397L61.4666 29.5536H62.9376Z" fill="white"/>
<path d="M68.4915 26.6389H67.6743V28.1644H66.0399V26.6389H65.2227V30.4526H66.0399V28.8999H67.6743V30.4526H68.4915V26.6389Z" fill="white"/>
<path d="M70.8309 26.6389H70.0137V30.4526H70.8309V26.6389Z" fill="white"/>
<path d="M75.1863 26.6389H73.4974C73.1161 26.6389 72.8055 26.7588 72.5604 26.9985C72.3152 27.2382 72.1899 27.5379 72.1899 27.892C72.1899 28.0445 72.2172 28.1862 72.2607 28.3224C72.3098 28.4586 72.3642 28.5621 72.4296 28.6384C72.4896 28.7146 72.5549 28.7855 72.6367 28.8508C72.7129 28.9162 72.7674 28.9598 72.8001 28.9762C72.8273 28.987 72.8546 29.0034 72.8709 29.0088L72.0537 30.4526H72.9254L73.6609 29.1178H74.3691V30.4526H75.1863V26.6389ZM73.0071 27.892C73.0071 27.7394 73.0561 27.6196 73.1542 27.5215C73.2523 27.4235 73.3776 27.3744 73.5247 27.3744H74.3691V28.3823H73.5247C73.3776 28.3823 73.2523 28.3333 73.1542 28.2407C73.0561 28.1481 73.0071 28.0282 73.0071 27.892Z" fill="white"/>
<path d="M2.49057 6.10352e-05H0V17.9875H2.49057V11.3143C2.49057 10.1854 2.77137 9.29483 3.33296 8.66766C3.89456 8.04048 4.66371 7.71435 5.61598 7.71435C6.43396 7.71435 7.11765 8.01539 7.66704 8.5924C8.21643 9.18194 8.49722 9.92201 8.49722 10.8126V18.0001H11V10.8126C11 9.15686 10.5483 7.85233 9.64484 6.87393C8.7414 5.89553 7.55716 5.40633 6.11654 5.40633C5.70144 5.40633 5.28635 5.45651 4.88346 5.5694C4.46837 5.68229 4.13873 5.80773 3.87014 5.94571C3.60155 6.08368 3.34517 6.23421 3.11321 6.40982C2.88124 6.58543 2.72253 6.71086 2.64928 6.78612C2.57603 6.86138 2.51498 6.91156 2.49057 6.94919V6.10352e-05Z" fill="#F0145A"/>
<path d="M16.5675 0H14V17.9725H16.5675V0Z" fill="white"/>
<path d="M31.7108 12.7088L31.8391 11.425C31.8391 9.70482 31.2743 8.26702 30.1189 7.11165C28.9635 5.95627 27.5257 5.39142 25.8055 5.39142C24.0853 5.39142 22.5961 6.00762 21.3637 7.24002C20.1313 8.47242 19.5151 9.9359 19.5151 11.6818C19.5151 13.4791 20.157 15.0196 21.4151 16.3033C22.6732 17.5871 24.188 18.2289 25.9339 18.2289C26.6014 18.2289 27.2176 18.1262 27.8338 17.9465C28.45 17.7411 28.9635 17.5357 29.323 17.3303C29.7081 17.0992 30.0932 16.8425 30.427 16.5601C30.7608 16.2776 30.9919 16.0722 31.0946 15.9439C31.1973 15.8155 31.2743 15.7385 31.3257 15.6614L29.6568 13.9926L29.2716 14.4804C29.0149 14.7885 28.5784 15.0966 27.9622 15.4304C27.3203 15.7641 26.6528 15.9182 25.9339 15.9182C24.9326 15.9182 24.0853 15.6101 23.3664 14.9682C22.6475 14.3263 22.211 13.5818 22.0826 12.7088H31.7108ZM25.8055 7.5738C26.7555 7.5738 27.5257 7.85622 28.1676 8.3954C28.7838 8.96025 29.1689 9.65347 29.323 10.5264H22.1853C22.4164 9.65347 22.8272 8.96025 23.4691 8.3954C24.0853 7.85622 24.8812 7.5738 25.8055 7.5738Z" fill="white"/>
<path d="M43.6853 17.2276C43.6853 18.3573 43.3515 19.2816 42.6583 20.0005C41.9908 20.6937 41.1435 21.0532 40.0908 21.0532C39.6286 21.0532 39.1665 20.9762 38.73 20.8478C38.2935 20.7194 37.9598 20.5654 37.6773 20.3856C37.3949 20.2059 37.1382 20.0262 36.8814 19.7951C36.6503 19.564 36.4963 19.41 36.4193 19.333C36.3422 19.2559 36.2909 19.1789 36.2395 19.1276L34.5707 20.7964L34.7761 21.0532C34.9044 21.2329 35.1355 21.464 35.4436 21.7207C35.7517 21.9518 36.1112 22.2086 36.522 22.4653C36.9328 22.6964 37.4463 22.9018 38.0881 23.0815C38.73 23.2612 39.3976 23.3639 40.0908 23.3639C41.8367 23.3639 43.2745 22.7734 44.4812 21.5924C45.6623 20.3856 46.2528 18.9478 46.2528 17.2019V5.64817H43.6853V6.93192L43.2488 6.54679C42.9664 6.29004 42.5299 6.03329 41.9137 5.77654C41.2975 5.51979 40.63 5.39142 39.9624 5.39142C38.3962 5.39142 37.0611 5.98194 35.9058 7.18867C34.7504 8.3954 34.1855 9.8332 34.1855 11.5534C34.1855 13.2736 34.7504 14.7114 35.9058 15.9182C37.0611 17.1249 38.3962 17.7154 39.9624 17.7154C40.3989 17.7154 40.8097 17.6641 41.2462 17.5614C41.657 17.433 41.9908 17.3046 42.2732 17.1763C42.5556 17.0479 42.8124 16.8938 43.0434 16.7141C43.2745 16.5344 43.4542 16.406 43.5056 16.3547L43.6853 16.1749V17.2276ZM36.753 11.5534C36.753 10.4751 37.0868 9.57645 37.78 8.83187C38.4733 8.0873 39.2949 7.70217 40.2192 7.70217C41.1435 7.70217 41.9651 8.0873 42.6583 8.83187C43.3259 9.57645 43.6853 10.4751 43.6853 11.5534C43.6853 12.6318 43.3259 13.5304 42.6583 14.275C41.9651 15.0195 41.1435 15.4047 40.2192 15.4047C39.2949 15.4047 38.4733 15.0195 37.78 14.275C37.0868 13.5304 36.753 12.6318 36.753 11.5534Z" fill="white"/>
<path d="M59.6546 17.9722V10.0129C59.6546 8.7035 59.1668 7.59947 58.2168 6.72652C57.2669 5.82789 56.0345 5.39142 54.5196 5.39142C53.9291 5.39142 53.3386 5.46844 52.7737 5.62249C52.2089 5.80222 51.7467 5.98194 51.413 6.18734C51.0792 6.39274 50.7454 6.62382 50.4373 6.90625C50.1292 7.163 49.9495 7.34272 49.8468 7.44542C49.7698 7.54812 49.6927 7.62515 49.6414 7.70217L51.3103 9.37105L51.644 8.93457C51.8494 8.65215 52.2089 8.3954 52.7481 8.11297C53.2872 7.83055 53.8778 7.70217 54.5196 7.70217C55.2642 7.70217 55.8804 7.93325 56.3682 8.36972C56.8561 8.8062 57.0871 9.37105 57.0871 10.0129L52.594 10.7832C51.49 10.9629 50.5914 11.3994 49.9752 12.0926C49.3333 12.7858 48.9995 13.6331 48.9995 14.6344C48.9995 15.5844 49.4103 16.406 50.2319 17.1249C51.0792 17.8695 52.1062 18.2289 53.3643 18.2289C53.8007 18.2289 54.2115 18.1776 54.6223 18.0492C55.0588 17.9465 55.3926 17.8181 55.675 17.6898C55.9574 17.5614 56.2142 17.4073 56.4453 17.2276C56.6763 17.0479 56.8304 16.9195 56.9331 16.8682C57.0101 16.7911 57.0615 16.7141 57.0871 16.6884V17.9722H59.6546ZM53.7494 15.9182C53.0818 15.9182 52.5427 15.7641 52.1575 15.456C51.7467 15.1479 51.567 14.7885 51.567 14.3777C51.567 13.9412 51.6954 13.5561 51.9778 13.2737C52.2602 12.9912 52.6454 12.7858 53.1075 12.7088L57.0871 12.0669V12.3237C57.0871 13.4791 56.8047 14.352 56.2142 14.9939C55.6237 15.6101 54.8021 15.9182 53.7494 15.9182Z" fill="white"/>
<path d="M65.3204 0H62.7529V17.9725H65.3204V0Z" fill="white"/>
<path d="M76.9941 7.0603L76.8401 6.88057C76.7374 6.77787 76.5833 6.64949 76.3522 6.46977C76.1212 6.29004 75.8644 6.13599 75.582 5.95627C75.2996 5.80222 74.9144 5.67384 74.4523 5.54547C73.9901 5.44277 73.5023 5.39142 73.0145 5.39142C71.7564 5.39142 70.7294 5.75087 69.9078 6.46977C69.0605 7.21435 68.6497 8.03595 68.6497 8.98592C68.6497 9.67915 68.8038 10.244 69.1119 10.7575C69.42 11.2453 69.8051 11.6048 70.2929 11.8102C70.7551 12.0413 71.2686 12.2723 71.8078 12.4521C72.3469 12.6318 72.8348 12.7858 73.3226 12.9142C73.7847 13.0683 74.1699 13.248 74.478 13.4791C74.7861 13.7101 74.9401 14.0182 74.9401 14.3777C74.9401 14.8398 74.7604 15.225 74.4266 15.5074C74.0928 15.7641 73.5793 15.9182 72.8861 15.9182C72.3213 15.9182 71.7564 15.7641 71.2172 15.5074C70.6781 15.225 70.3443 14.9939 70.1646 14.8142C70.0105 14.6344 69.8821 14.4804 69.8051 14.3777L68.1362 16.0466L68.316 16.2776C68.4443 16.4317 68.6241 16.6114 68.8808 16.8168C69.1632 17.0479 69.4713 17.2533 69.8051 17.4587C70.1646 17.6641 70.6267 17.8438 71.1659 17.9979C71.7051 18.1519 72.2956 18.2289 72.8861 18.2289C74.2469 18.2289 75.3766 17.8438 76.2239 17.0992C77.0711 16.3547 77.5076 15.4304 77.5076 14.3777C77.5076 13.6845 77.3536 13.0939 77.0455 12.6318C76.7374 12.144 76.3522 11.7845 75.8644 11.5534C75.4023 11.2967 74.8888 11.0913 74.3496 10.9115C73.8104 10.7318 73.3226 10.5521 72.8348 10.4494C72.3726 10.321 71.9875 10.1156 71.6794 9.88455C71.3713 9.65347 71.2172 9.34537 71.2172 8.98592C71.2172 8.65215 71.3713 8.34405 71.7051 8.0873C72.0132 7.83055 72.4496 7.70217 73.0145 7.70217C73.4253 7.70217 73.8361 7.80487 74.2212 7.9846C74.632 8.16432 74.9144 8.31837 75.0428 8.44675C75.1712 8.57512 75.2739 8.67782 75.3252 8.72917L76.9941 7.0603Z" fill="white"/>
<path d="M97.9785 18V10.1328H92.7554V18H91.4287V8.88037H99.3145V18H97.9785ZM108.685 15.9404C109.34 15.2601 109.668 14.4282 109.668 13.4448C109.668 12.4552 109.34 11.6234 108.685 10.9492C108.035 10.2689 107.253 9.92871 106.337 9.92871C105.428 9.92871 104.646 10.2689 103.99 10.9492C103.341 11.6234 103.016 12.4521 103.016 13.4355C103.016 14.4128 103.341 15.2446 103.99 15.9312C104.646 16.6115 105.428 16.9517 106.337 16.9517C107.253 16.9517 108.035 16.6146 108.685 15.9404ZM103.044 16.8125C102.141 15.8971 101.689 14.7746 101.689 13.4448C101.689 12.1089 102.141 10.9832 103.044 10.0679C103.953 9.14632 105.054 8.68555 106.347 8.68555C107.639 8.68555 108.737 9.14632 109.64 10.0679C110.543 10.9832 110.995 12.1089 110.995 13.4448C110.995 14.7746 110.543 15.8971 109.64 16.8125C108.737 17.7279 107.639 18.1855 106.347 18.1855C105.054 18.1855 103.953 17.7279 103.044 16.8125ZM114.056 16.8032C113.159 15.8755 112.711 14.7529 112.711 13.4355C112.711 12.1182 113.159 10.9987 114.056 10.0771C114.959 9.14941 116.029 8.68555 117.266 8.68555C117.977 8.68555 118.639 8.84017 119.251 9.14941C119.87 9.45247 120.312 9.75553 120.578 10.0586L120.977 10.4946L120.021 11.4409C119.997 11.4038 119.96 11.3512 119.91 11.2832C119.861 11.2152 119.749 11.0915 119.576 10.9121C119.409 10.7327 119.227 10.5781 119.029 10.4482C118.831 10.3122 118.574 10.1916 118.259 10.0864C117.943 9.98128 117.612 9.92871 117.266 9.92871C116.394 9.92871 115.636 10.2689 114.993 10.9492C114.356 11.6234 114.038 12.4552 114.038 13.4448C114.038 14.4282 114.356 15.2601 114.993 15.9404C115.636 16.6146 116.394 16.9517 117.266 16.9517C117.798 16.9517 118.302 16.8249 118.778 16.5713C119.255 16.3177 119.601 16.0641 119.817 15.8105L120.124 15.4395L121.07 16.293C121.033 16.3424 120.974 16.4136 120.894 16.5063C120.819 16.5929 120.659 16.7445 120.411 16.9609C120.164 17.1712 119.904 17.3599 119.632 17.5269C119.36 17.6877 119.007 17.8392 118.574 17.9814C118.147 18.1175 117.711 18.1855 117.266 18.1855C116.023 18.1855 114.953 17.7248 114.056 16.8032ZM124.104 8.88037H130.755V18H129.419V10.1143H125.43V11.543C125.43 12.8851 125.362 14.0046 125.226 14.9014C125.096 15.792 124.898 16.4723 124.632 16.9424C124.366 17.4062 124.073 17.731 123.751 17.9165C123.429 18.0959 123.04 18.1855 122.582 18.1855C122.427 18.1855 122.27 18.1701 122.109 18.1392C121.954 18.1082 121.84 18.0742 121.766 18.0371L121.636 18V16.6733C121.889 16.797 122.143 16.8589 122.396 16.8589C122.786 16.8589 123.092 16.7476 123.315 16.5249C123.538 16.3022 123.723 15.7889 123.872 14.9849C124.026 14.1808 124.104 13.0335 124.104 11.543V8.88037ZM135.784 19.3267L136.257 18L132.546 8.88037H133.975L136.925 16.293L139.866 8.88037H141.294L137.11 19.3267C136.733 20.2915 136.328 20.9749 135.895 21.377C135.462 21.7852 134.918 21.9893 134.262 21.9893C134.058 21.9893 133.86 21.9738 133.668 21.9429C133.483 21.9119 133.344 21.8779 133.251 21.8408L133.121 21.8037V20.5605C133.437 20.6842 133.752 20.7492 134.067 20.7554C134.871 20.7554 135.444 20.2791 135.784 19.3267ZM149.18 8.88037V10.1143H144.43V18H143.104V8.88037H149.18ZM157.734 8.88037H158.875V18H157.539V11.1626L152.028 18H150.896V8.88037H152.223V15.7178L157.734 8.88037Z" fill="white"/>
<path fill-rule="evenodd" clip-rule="evenodd" d="M176.998 13.3507H170.888L173.58 5.18478L176.626 5.20274L174.857 10.588L177.894 10.5898L176.998 13.3507Z" fill="url(#paint0_linear_0_21732)"/>
<path fill-rule="evenodd" clip-rule="evenodd" d="M164.524 23.9512H161.5C161.5 23.9512 167.008 7.04374 168.295 3.0969C168.896 1.25027 170.622 0 172.568 0H177.975C179.605 0 180.966 0.686832 181.812 1.84746C182.657 3.00814 182.897 4.49328 182.404 6.00835C181.911 7.52343 181.444 8.95362 181.017 10.264C180.441 12.0334 178.844 13.2526 176.998 13.3517C176.998 13.3517 176.989 13.3486 179.575 5.40888C179.804 4.70822 179.72 4.0224 179.362 3.53053C179.003 3.03872 178.399 2.74765 177.599 2.74765H172.96C172.049 2.74765 171.242 3.33271 170.96 4.19687L164.524 23.9512Z" fill="#F0145A"/>
<path fill-rule="evenodd" clip-rule="evenodd" d="M87.4489 0H90.5L82.5511 24H79.5L87.4489 0Z" fill="#F0145A"/>
</g>
<defs>
<linearGradient id="paint0_linear_0_21732" x1="170.887" y1="11.7866" x2="177.676" y2="15.3446" gradientUnits="userSpaceOnUse">
<stop stop-color="#F0145A"/>
<stop offset="1" stop-color="#693264"/>
</linearGradient>
<clipPath id="clip0_0_21732">
<rect width="208" height="31" fill="white"/>
</clipPath>
</defs>
</svg>
